<svg width="25" height="25" viewBox="0 0 25 25" fill="none" xmlns="http://www.w3.org/2000/svg">
<path d="M9.84375 21.3339C10.834 21.8885 11.8093 22.167 12.7179 22.167C13.4784 22.1667 14.1922 21.9714 14.8274 21.5793L17.1689 20.1349C17.2533 20.0828 17.3136 19.9996 17.3366 19.903C17.3595 19.8066 17.3428 19.7049 17.2907 19.6205L15.2611 16.3311C15.2091 16.2469 15.1256 16.1866 15.0292 16.1637C14.932 16.141 14.8309 16.1574 14.7467 16.2095L12.3875 17.6656C12.0248 17.8893 11.5594 17.9608 11.1118 17.8624C10.6641 17.7638 10.282 17.5042 10.0632 17.1494L6.8568 11.953C6.39319 11.2017 6.62686 10.2132 7.37771 9.74957C7.37771 9.74957 7.37796 9.74957 7.37796 9.74932L9.82657 8.23765C10.0022 8.12929 10.0565 7.8991 9.94814 7.72347L7.9183 4.43483C7.80993 4.2592 7.5795 4.20414 7.40412 4.31301L4.9575 5.82318C2.23063 7.50624 2.32629 11.9244 5.19068 16.5675C6.5038 18.6965 8.15646 20.3893 9.84375 21.3339ZM5.35037 6.45893L7.47885 5.14532L9.11632 7.79796L6.98559 9.11331C6.9851 9.11356 6.98485 9.11381 6.9846 9.11406C5.88398 9.79441 5.54119 11.2435 6.22104 12.3452L9.42747 17.5413C9.75158 18.0672 10.3071 18.4501 10.9513 18.5921C11.5869 18.7314 12.2537 18.626 12.7801 18.3011L14.8212 17.0413L16.4584 19.6945L14.4348 20.9428C12.957 21.8546 11.321 21.304 10.209 20.6815C8.63079 19.7976 7.07428 18.1972 5.82669 16.1749C3.19348 11.9065 2.99767 7.91106 5.35037 6.45893Z" fill="white"/>
<path d="M12.3514 8.35853C13.5606 8.43003 14.6309 9.05134 15.288 10.0635C15.9163 11.0281 16.0675 12.2102 15.7026 13.3068C15.6373 13.5026 15.7432 13.7144 15.939 13.7792C15.9781 13.7924 16.0177 13.7983 16.0571 13.7983C16.2138 13.7983 16.3595 13.6994 16.4116 13.5427C16.849 12.2289 16.6677 10.8119 15.9146 9.65595C15.1388 8.46067 13.823 7.69662 12.3955 7.61217C12.1875 7.60345 12.0126 7.75716 12.0004 7.96318C11.9882 8.16945 12.1454 8.34633 12.3514 8.35853Z" fill="white"/>
<path d="M12.8745 5.58472C14.8326 5.80968 16.5707 6.88413 17.6432 8.53207C18.6823 10.1297 18.9768 12.0967 18.4509 13.929C18.3938 14.1276 18.5084 14.3343 18.7067 14.3911C18.7413 14.4011 18.7757 14.4058 18.8101 14.4058C18.9723 14.4058 19.122 14.299 19.1688 14.1353C19.7545 12.0947 19.4267 9.90372 18.2695 8.1245C17.0752 6.28923 15.1401 5.09296 12.9597 4.84234C12.7587 4.81867 12.5696 4.9659 12.546 5.17093C12.5223 5.37596 12.6693 5.56105 12.8745 5.58472Z" fill="white"/>
<path d="M13.3855 3.14192C15.9861 3.50339 18.2984 4.9732 19.7299 7.17468C21.1322 9.32883 21.5527 11.9894 20.884 14.4742C20.8302 14.6735 20.9485 14.8785 21.1478 14.932C21.1802 14.9408 21.2131 14.945 21.2453 14.945C21.4099 14.945 21.5611 14.8354 21.6057 14.6685C22.3297 11.979 21.8743 9.09889 20.3564 6.76712C18.8069 4.38428 16.3037 2.79315 13.4889 2.40178C13.2853 2.37462 13.0955 2.51588 13.0674 2.7204C13.0387 2.92468 13.1812 3.11352 13.3855 3.14192Z" fill="white"/>
</svg>
