<svg width="20" height="20" viewBox="0 0 20 20" fill="none" xmlns="http://www.w3.org/2000/svg">
<path d="M6.16962 9.24814L9.56922 14.9379C9.62263 15.0273 9.71889 15.0825 9.82312 15.0833C9.82392 15.0833 9.82492 15.0833 9.82572 15.0833C9.92895 15.0833 10.025 15.0299 10.0796 14.9422L13.6183 9.25252C13.6271 9.23837 13.6347 9.22363 13.6406 9.20868C14.0638 8.51772 14.287 7.7285 14.287 6.92275C14.287 4.5013 12.3165 2.53125 9.89447 2.53125C7.47322 2.53125 5.50317 4.5013 5.50317 6.92275C5.50317 7.7287 5.72658 8.51812 6.14989 9.20928C6.15547 9.22263 6.16205 9.23558 6.16962 9.24814ZM9.89467 3.12934C11.9871 3.12934 13.6893 4.83113 13.6893 6.92295C13.6893 7.63344 13.4878 8.32958 13.1067 8.93584C13.0976 8.95019 13.09 8.96514 13.0838 8.98068L9.8309 14.2102L6.70872 8.98487C6.70194 8.96793 6.69377 8.95139 6.68381 8.93564C6.30275 8.32938 6.10126 7.63344 6.10126 6.92275C6.10126 4.83113 7.80306 3.12934 9.89467 3.12934Z" fill="white"/>
<path d="M9.89527 8.5558C10.7955 8.5558 11.5279 7.82339 11.5279 6.92316C11.5279 6.02294 10.7955 5.29053 9.89527 5.29053C8.99505 5.29053 8.26263 6.02294 8.26263 6.92316C8.26263 7.82339 8.99505 8.5558 9.89527 8.5558ZM9.89527 5.88842C10.4659 5.88842 10.93 6.35258 10.93 6.92316C10.93 7.49375 10.4659 7.95791 9.89527 7.95791C9.32469 7.95791 8.86052 7.49375 8.86052 6.92316C8.86032 6.35258 9.32469 5.88842 9.89527 5.88842Z" fill="white"/>
<path d="M13.6707 16.8003H6.11959C5.95438 16.8003 5.82065 16.9342 5.82065 17.0992C5.82065 17.2643 5.95438 17.3982 6.11959 17.3982H13.6707C13.8358 17.3982 13.9697 17.2643 13.9697 17.0992C13.9697 16.9342 13.8358 16.8003 13.6707 16.8003Z" fill="white"/>
</svg>
