<svg width="101" height="101" viewBox="0 0 101 101" fill="none" xmlns="http://www.w3.org/2000/svg">
<path d="M50.465 57.735C30.964 57.735 15.098 73.602 15.098 93.106C15.098 93.934 15.769 94.606 16.598 94.606H84.332C85.16 94.606 85.832 93.934 85.832 93.106C85.832 73.602 69.967 57.735 50.465 57.735ZM18.132 91.606C18.918 74.45 33.12 60.735 50.465 60.735C67.81 60.735 82.013 74.45 82.798 91.606H18.132Z" fill="black"/>
<path d="M49.876 13.379C38.648 13.379 29.513 22.514 29.513 33.742C29.513 44.97 38.648 54.105 49.876 54.105C61.105 54.105 70.239 44.97 70.239 33.742C70.239 22.514 61.104 13.379 49.876 13.379ZM49.876 51.105C40.302 51.105 32.513 43.316 32.513 33.742C32.513 24.168 40.302 16.379 49.876 16.379C59.45 16.379 67.239 24.168 67.239 33.742C67.239 43.316 59.45 51.105 49.876 51.105Z" fill="black"/>
<path d="M25.138 44.889C25.967 44.889 26.638 44.218 26.638 43.389V23.977C26.638 23.881 26.627 23.788 26.61 23.697C30.629 14.378 39.664 8.393 49.877 8.393C60.273 8.393 69.459 14.595 73.363 24.209V43.276C72.105 46.374 70.278 49.16 67.913 51.556C67.331 52.146 67.337 53.095 67.927 53.677C68.219 53.966 68.6 54.11 68.981 54.11C69.368 54.11 69.755 53.961 70.048 53.664C72.568 51.111 74.543 48.16 75.941 44.89H76.995C83.174 44.89 88.201 39.863 88.201 33.684C88.201 27.505 83.174 22.478 76.995 22.478H75.877C71.374 12.075 61.281 5.394 49.877 5.394C38.467 5.394 28.373 12.074 23.872 22.478H23.006C16.827 22.478 11.8 27.505 11.8 33.684C11.8 39.863 16.827 44.89 23.006 44.89H25.138V44.889ZM85.201 33.683C85.201 38.208 81.519 41.889 76.995 41.889H76.363V25.477H76.995C81.52 25.477 85.201 29.158 85.201 33.683ZM14.8 33.683C14.8 29.158 18.481 25.477 23.006 25.477H23.638V41.889H23.006C18.481 41.889 14.8 38.208 14.8 33.683Z" fill="black"/>
</svg>
